<svg width="70" height="35" viewBox="0 0 70 35" fill="none" xmlns="http://www.w3.org/2000/svg">
<path id="Vector" d="M51.2826 -0.000976562C47.5304 -0.000976562 42.0227 2.3054 34.8626 6.88372C29.1828 3.26926 22.8144 -0.000976562 18.4082 -0.000976562C8.49429 -0.000976562 0.404785 7.70989 0.404785 17.2108C0.404785 26.7117 8.45987 34.4225 18.4082 34.4225C22.8144 34.4225 29.1483 31.1523 34.8626 27.5378C40.5425 31.1523 46.9108 34.4225 51.2826 34.4225C61.1965 34.4225 69.286 26.7117 69.286 17.2108C69.2516 7.70989 61.1965 -0.000976562 51.2826 -0.000976562ZM45.2929 17.2108C43.5717 18.5877 39.4754 21.7547 34.8626 24.8184C30.0778 21.6514 25.9125 18.4156 24.1914 17.0387C24.2602 17.0731 24.3291 17.0731 24.4323 17.0731C24.57 17.0731 24.7421 17.0731 24.9143 17.0387C27.2206 16.7977 28.9762 15.2831 29.6991 12.9078L29.9401 12.0817L29.0451 12.0128C26.4977 11.7719 24.4323 12.7013 23.3652 14.5602C23.1931 14.87 23.0554 15.1798 22.9521 15.524C22.8833 15.4896 22.8488 15.4552 22.78 15.4552C22.8144 15.3863 22.8489 15.3175 22.8833 15.2486C22.9177 15.1109 22.9521 14.9388 22.9865 14.8011C23.434 12.6324 22.5046 10.567 20.3704 9.15568L19.6475 8.67375L19.3032 9.46549C18.2705 11.703 18.5459 13.8717 20.0606 15.4208C20.3015 15.6617 20.5769 15.9027 20.8867 16.1092C20.8523 16.1437 20.8179 16.1781 20.749 16.2469C20.7146 16.1781 20.6458 16.1437 20.5769 16.1092C20.4392 16.0404 20.3015 15.9371 20.1638 15.8683C18.1328 14.7667 15.7921 15.0077 13.7266 16.5223L13.0038 17.0387L13.6922 17.6239C14.9315 18.691 16.3428 19.2418 17.7198 19.2418C18.4427 19.2418 19.1655 19.1041 19.8884 18.7598C20.1982 18.6221 20.5425 18.45 20.8179 18.2091C20.8523 18.2779 20.8867 18.3123 20.9211 18.3812C20.8523 18.4156 20.7834 18.45 20.7146 18.4844C20.6113 18.5877 20.4736 18.691 20.3359 18.7943C18.6148 20.3089 18.1328 22.512 18.9934 24.8528L19.3032 25.679L20.095 25.2315C22.2981 23.9922 23.3996 22.0645 23.1587 19.9647C23.1242 19.6548 23.0554 19.3106 22.9177 19.0008C24.6733 20.4122 28.4254 23.3382 32.8316 26.2986C27.6681 29.5344 22.1604 32.3227 18.4771 32.3227C9.8368 32.3227 2.81442 25.6101 2.81442 17.3485C2.81442 9.08683 9.8368 2.37425 18.4771 2.37425C25.9814 2.23656 41.4031 14.1471 45.2929 17.2108ZM20.0606 23.3382C19.8196 22.0645 20.1294 20.8941 20.9556 19.9991C21.0933 19.827 21.2654 19.6893 21.4719 19.5516C21.5063 19.7237 21.5408 19.8614 21.5752 20.0335C21.7473 21.2727 21.1965 22.4431 20.0606 23.3382ZM21.6096 14.0438C21.5752 14.2504 21.5408 14.4569 21.4719 14.6979C21.3342 14.5946 21.2309 14.4913 21.0933 14.3881C20.1982 13.4586 19.8884 12.2194 20.2671 10.8424C21.2654 11.7374 21.7473 12.8734 21.6096 14.0438ZM24.4667 15.6273C24.5356 15.4896 24.6044 15.3175 24.6733 15.1798C25.3273 14.0782 26.4633 13.4242 27.9435 13.3209C27.3583 14.4913 26.36 15.2486 25.1552 15.4896C24.9487 15.5929 24.7077 15.6273 24.4667 15.6273ZM19.6475 17.1075C19.5098 17.2108 19.3721 17.2796 19.2 17.3485C17.9951 17.8993 16.6871 17.7616 15.4478 17.0042C16.6526 16.3846 17.8919 16.3158 19.0279 16.7977C19.2344 16.901 19.4409 16.9698 19.6475 17.1075ZM47.8747 18.0714C48.1156 17.8648 48.2877 17.555 48.2877 17.2108C48.2877 16.8665 48.1501 16.5911 47.8747 16.3502C47.496 16.0404 42.78 12.1505 36.928 8.26066C43.2275 4.30196 48.1845 2.23655 51.2826 2.23655C59.9229 2.23655 66.9452 8.94913 66.9452 17.2108C66.9452 25.4724 59.9229 32.185 51.2826 32.185C47.5993 32.185 42.0915 29.3967 36.928 26.1609C42.78 22.271 47.4616 18.3812 47.8747 18.0714Z" fill="#FF8400"/>
</svg>
