<?xml version="1.0" encoding="utf-8"?>
<!-- Generator: Adobe Illustrator 26.0.1, SVG Export Plug-In . SVG Version: 6.00 Build 0)  -->
<svg version="1.1" id="Layer_1" xmlns="http://www.w3.org/2000/svg" xmlns:xlink="http://www.w3.org/1999/xlink" x="0px" y="0px"
	 viewBox="0 0 25 25" style="enable-background:new 0 0 25 25;" xml:space="preserve">
<style type="text/css">
	.st0{clip-path:url(#SVGID_00000076585722181783040460000017687029274230531998_);fill:#FFFFFF;}
</style>
<g>
	<path d="M363.73,250.95c0.01,0.13,0.07,0.18,0.12,0.23c1.06,1.19,1.84,2.54,2.37,4.04c0.19,0.54,0.33,1.1,0.44,1.66
		c0.01,0.05,0.02,0.11,0.03,0.16c0.02,0.11,0.07,0.17,0.19,0.16c0.07,0,0.14,0,0.21,0c1.53,0,3.07,0,4.6,0
		c0.84,0,1.53,0.52,1.79,1.3c0.37,1.13-0.4,2.32-1.59,2.45c-0.16,0.02-0.32,0.03-0.49,0.03c-1.42,0-2.84,0-4.25,0
		c-0.06,0-0.12,0-0.19,0c-0.24,0-0.25,0.02-0.3,0.26c-0.36,1.95-1.16,3.7-2.39,5.25c-1.49,1.87-3.38,3.19-5.66,3.94
		c-0.82,0.27-1.66,0.44-2.52,0.52c-0.34,0.03-0.68,0.04-1.02,0.04c-1.21,0-2.42,0-3.63,0c-0.08,0-0.17,0-0.27,0
		c0.04,0.11,0.11,0.16,0.17,0.22c5.49,5.49,10.98,10.98,16.47,16.47c0.08,0.08,0.16,0.15,0.23,0.23c0.53,0.61,0.67,1.29,0.34,2.03
		c-0.32,0.73-0.9,1.1-1.7,1.13c-0.49,0.02-0.91-0.15-1.28-0.46c-0.3-0.25-0.55-0.55-0.82-0.82c-0.63-0.61-1.25-1.22-1.86-1.85
		c-0.62-0.65-1.28-1.26-1.9-1.91c-0.74-0.76-1.51-1.5-2.26-2.25c-1-1-2-2.01-3-3.01c-0.76-0.76-1.53-1.52-2.29-2.28
		c-0.8-0.79-1.59-1.59-2.38-2.38c-0.74-0.75-1.48-1.5-2.23-2.24c-0.46-0.47-0.94-0.92-1.4-1.39c-0.67-0.67-1.35-1.35-2.01-2.03
		c-0.52-0.53-0.69-1.17-0.47-1.88s0.72-1.14,1.44-1.3c0.15-0.03,0.31-0.03,0.46-0.03c2.74,0,5.48,0.01,8.23-0.01
		c2.24-0.02,4.18-0.81,5.77-2.39c1.02-1.01,1.72-2.22,2.11-3.61c0.01-0.03,0.02-0.06,0.02-0.09c0.03-0.14,0.01-0.16-0.14-0.17
		c-0.08,0-0.15,0-0.23,0c-5.21,0-10.41,0-15.62,0c-0.44,0-0.86-0.06-1.25-0.29c-0.68-0.42-1.01-1.2-0.84-2.01
		c0.15-0.75,0.8-1.36,1.56-1.46c0.16-0.02,0.32-0.01,0.49-0.01c5.24,0,10.47,0,15.71,0c0.37,0,0.39,0.06,0.27-0.37
		c-0.49-1.68-1.43-3.06-2.8-4.15c-1.13-0.9-2.43-1.45-3.86-1.67c-0.43-0.07-0.86-0.07-1.3-0.07c-2.7,0-5.41,0-8.11,0
		c-0.45,0-0.88-0.1-1.24-0.38c-0.61-0.47-0.87-1.1-0.73-1.86c0.15-0.78,0.63-1.27,1.4-1.48c0.15-0.04,0.3-0.05,0.46-0.05
		c0.47,0,0.95,0,1.42,0c7.86,0,15.71,0,23.57,0c0.49,0,0.94,0.12,1.31,0.44c0.6,0.53,0.82,1.2,0.6,1.97
		c-0.22,0.75-0.75,1.19-1.52,1.34c-0.17,0.03-0.34,0.04-0.51,0.04c-2.47,0-4.94,0-7.41,0C363.95,250.95,363.85,250.95,363.73,250.95
		z"/>
</g>
<g>
	<defs>
		<rect id="SVGID_1_" y="0" width="25" height="25"/>
	</defs>
	<clipPath id="SVGID_00000126284084828702638000000009160350856747753396_">
		<use xlink:href="#SVGID_1_"  style="overflow:visible;"/>
	</clipPath>
	<path id="Arrow_30_" style="clip-path:url(#SVGID_00000126284084828702638000000009160350856747753396_);fill:#FFFFFF;" d="
		M12.1,0.54c-0.03,0.01-0.07,0.02-0.1,0.02c-0.03,0.01-0.06,0.01-0.09,0.02c-0.03,0.01-0.06,0.02-0.1,0.03
		c-0.03,0.01-0.06,0.02-0.09,0.03c-0.03,0.01-0.06,0.03-0.09,0.04c-0.03,0.01-0.06,0.03-0.09,0.04c-0.03,0.02-0.06,0.03-0.08,0.05
		c-0.03,0.02-0.06,0.03-0.09,0.05c-0.03,0.02-0.06,0.04-0.09,0.06c-0.02,0.02-0.05,0.03-0.07,0.05C11.16,1,11.11,1.05,11.06,1.1
		L3.8,8.36c-0.79,0.79-0.79,2.08,0,2.88c0.79,0.79,2.08,0.79,2.88,0l3.79-3.79v15.03c0,1.12,0.91,2.03,2.03,2.03
		s2.03-0.91,2.03-2.03V7.44l3.79,3.79c0.79,0.79,2.08,0.79,2.88,0c0.4-0.4,0.6-0.92,0.6-1.44s-0.2-1.04-0.6-1.44L13.94,1.1
		c-0.05-0.05-0.1-0.09-0.15-0.13c-0.02-0.02-0.05-0.04-0.07-0.05c-0.03-0.02-0.06-0.04-0.09-0.06c-0.03-0.02-0.06-0.04-0.09-0.05
		c-0.03-0.02-0.05-0.03-0.08-0.05c-0.03-0.02-0.06-0.03-0.09-0.04c-0.03-0.01-0.06-0.03-0.09-0.04c-0.03-0.01-0.06-0.02-0.09-0.03
		c-0.03-0.01-0.06-0.02-0.1-0.03C13.06,0.58,13.03,0.57,13,0.56c-0.03-0.01-0.07-0.02-0.1-0.02c-0.04-0.01-0.07-0.01-0.11-0.02
		c-0.03,0-0.06-0.01-0.09-0.01c-0.13-0.01-0.27-0.01-0.4,0c-0.03,0-0.06,0.01-0.09,0.01C12.17,0.53,12.14,0.53,12.1,0.54z"/>
</g>
</svg>
